<?xml version="1.0" encoding="UTF-8" standalone="no"?>
<svg
   xmlns:dc="http://purl.org/dc/elements/1.1/"
   xmlns:cc="http://creativecommons.org/ns#"
   xmlns:rdf="http://www.w3.org/1999/02/22-rdf-syntax-ns#"
   xmlns:svg="http://www.w3.org/2000/svg"
   xmlns="http://www.w3.org/2000/svg"
   xmlns:sodipodi="http://sodipodi.sourceforge.net/DTD/sodipodi-0.dtd"
   xmlns:inkscape="http://www.inkscape.org/namespaces/inkscape"
   width="400"
   height="150"
   viewBox="0 0 400 150"
   fill="none"
   version="1.1"
   id="svg98"
   sodipodi:docname="buymeacoffee.svg"
   inkscape:version="1.0.2 (e86c8708, 2021-01-15)">
  <metadata
     id="metadata104">
    <rdf:RDF>
      <cc:Work
         rdf:about="">
        <dc:format>image/svg+xml</dc:format>
        <dc:type
           rdf:resource="http://purl.org/dc/dcmitype/StillImage" />
        <dc:title></dc:title>
      </cc:Work>
    </rdf:RDF>
  </metadata>
  <defs
     id="defs102" />
  <sodipodi:namedview
     pagecolor="#ffffff"
     bordercolor="#666666"
     borderopacity="1"
     objecttolerance="10"
     gridtolerance="10"
     guidetolerance="10"
     inkscape:pageopacity="0"
     inkscape:pageshadow="2"
     inkscape:window-width="1440"
     inkscape:window-height="872"
     id="namedview100"
     showgrid="false"
     fit-margin-top="0"
     fit-margin-left="0"
     fit-margin-right="0"
     fit-margin-bottom="0"
     inkscape:zoom="1.1151961"
     inkscape:cx="344.11532"
     inkscape:cy="205.44799"
     inkscape:window-x="0"
     inkscape:window-y="0"
     inkscape:window-maximized="1"
     inkscape:current-layer="svg98" />
  <rect
     width="400"
     height="150"
     fill="#ffffff"
     id="rect58"
     x="0"
     y="0" />
  <path
     fill-rule="evenodd"
     clip-rule="evenodd"
     d="m 111.369,81.2868 c -0.453,0.8644 -1.076,1.6172 -1.868,2.256 -0.792,0.6393 -1.717,1.1597 -2.774,1.5604 -1.056,0.4017 -2.12,0.6713 -3.189,0.8087 -1.069,0.1378 -2.107,0.1259 -3.113,-0.0377 -1.0067,-0.1627 -1.8628,-0.4947 -2.5666,-0.9966 l 0.7929,-8.2349 c 0.7292,-0.2505 1.6467,-0.5076 2.7547,-0.7709 1.107,-0.2629 2.245,-0.4513 3.415,-0.5639 1.17,-0.1131 2.277,-0.0997 3.322,0.0377 1.043,0.1378 1.867,0.4699 2.471,0.9965 0.327,0.3006 0.604,0.6264 0.831,0.9775 0.226,0.3511 0.364,0.7147 0.415,1.0906 0.125,1.0528 -0.038,2.0117 -0.491,2.8766 z M 99.8583,63.7451 c 0.5287,-0.3259 1.1637,-0.6145 1.9057,-0.8654 0.742,-0.25 1.504,-0.426 2.284,-0.5262 0.779,-0.0997 1.54,-0.1131 2.283,-0.0377 0.742,0.0754 1.397,0.2819 1.962,0.6202 0.566,0.3387 0.988,0.8277 1.264,1.4664 0.277,0.6398 0.353,1.4484 0.227,2.4259 -0.101,0.7771 -0.409,1.4354 -0.925,1.974 -0.515,0.5396 -1.145,0.9904 -1.887,1.3539 -0.742,0.364 -1.528,0.6521 -2.358,0.8644 -0.831,0.2137 -1.63,0.3707 -2.397,0.4704 -0.767,0.1006 -1.434,0.1636 -2,0.1879 -0.566,0.0253 -0.9375,0.0377 -1.1133,0.0377 z m 15.5867,12.2207 c -0.403,-0.8769 -0.944,-1.6478 -1.623,-2.3128 -0.679,-0.6641 -1.485,-1.1464 -2.415,-1.4474 0.402,-0.3258 0.799,-0.8396 1.189,-1.5418 0.389,-0.7013 0.723,-1.4665 0.999,-2.2937 0.277,-0.8277 0.466,-1.6606 0.567,-2.5007 0.1,-0.8396 0.062,-1.5605 -0.113,-2.1625 -0.429,-1.5037 -1.101,-2.682 -2.02,-3.5345 -0.918,-0.852 -1.987,-1.4412 -3.207,-1.7675 -1.221,-0.3249 -2.567,-0.3945 -4.038,-0.2066 -1.472,0.188 -2.976,0.5577 -4.51,1.1092 0,-0.125 0.012,-0.2567 0.038,-0.3945 0.024,-0.1374 0.037,-0.282 0.037,-0.4327 0,-0.3759 -0.189,-0.7013 -0.5659,-0.9775 -0.3773,-0.2757 -0.8115,-0.4384 -1.3018,-0.489 -0.4907,-0.0496 -0.969,0.0563 -1.4344,0.3196 -0.4659,0.2634 -0.7866,0.7466 -0.9623,1.4474 -0.2016,2.2565 -0.4027,4.6007 -0.6038,7.0318 -0.2016,2.432 -0.4151,4.8889 -0.6416,7.371 -0.2264,2.4816 -0.4529,4.9446 -0.6793,7.3886 -0.2265,2.4444 -0.453,4.7944 -0.6794,7.0504 0.0756,0.6769 0.2643,1.2036 0.5664,1.5795 0.3016,0.3764 0.654,0.602 1.0566,0.6769 0.4022,0.0754 0.824,0.0058 1.264,-0.207 0.44,-0.2123 0.824,-0.583 1.1515,-1.1092 1.0059,0.5515 2.1382,0.9088 3.396,1.072 1.258,0.1627 2.535,0.1627 3.831,0 1.295,-0.1632 2.572,-0.4699 3.83,-0.9217 1.258,-0.4508 2.403,-1.0152 3.435,-1.6916 1.031,-0.677 1.899,-1.4484 2.604,-2.3128 0.704,-0.8654 1.169,-1.7989 1.396,-2.8012 0.226,-1.0281 0.289,-2.0557 0.189,-3.0837 -0.101,-1.0276 -0.353,-1.9798 -0.755,-2.858 z"
     fill="#0d0c23"
     id="path60" />
  <path
     fill-rule="evenodd"
     clip-rule="evenodd"
     d="m 152.261,95.8185 c -0.138,0.8272 -0.334,1.6983 -0.585,2.6138 -0.252,0.9145 -0.547,1.7487 -0.887,2.5007 -0.339,0.752 -0.717,1.359 -1.131,1.823 -0.416,0.464 -0.863,0.659 -1.341,0.584 -0.377,-0.051 -0.616,-0.289 -0.716,-0.715 -0.101,-0.427 -0.101,-0.953 0,-1.579 0.1,-0.627 0.295,-1.3357 0.584,-2.1252 0.289,-0.7895 0.642,-1.5733 1.057,-2.35 0.416,-0.7776 0.887,-1.5227 1.415,-2.2374 0.529,-0.7141 1.082,-1.3099 1.661,-1.786 0.126,0.1502 0.182,0.5261 0.17,1.1282 -0.014,0.6016 -0.089,1.3162 -0.227,2.1429 z M 165.055,79.499 c -0.34,-0.3759 -0.755,-0.5887 -1.246,-0.6393 -0.49,-0.0501 -0.987,0.2257 -1.49,0.8272 -0.328,0.6016 -0.743,1.1784 -1.246,1.7298 -0.503,0.552 -1.025,1.0529 -1.566,1.5042 -0.541,0.4508 -1.057,0.8401 -1.547,1.1654 -0.491,0.3263 -0.875,0.5644 -1.151,0.7146 -0.101,-0.8019 -0.158,-1.6668 -0.17,-2.5946 -0.013,-0.9274 0.006,-1.8672 0.057,-2.8199 0.075,-1.3539 0.232,-2.7197 0.471,-4.0989 0.239,-1.3786 0.585,-2.7325 1.038,-4.0616 0,-0.7013 -0.164,-1.2718 -0.491,-1.7107 -0.327,-0.4384 -0.723,-0.7146 -1.188,-0.8272 -0.466,-0.1126 -0.944,-0.0501 -1.434,0.1879 -0.491,0.2386 -0.912,0.6712 -1.265,1.2971 -0.301,0.8277 -0.648,1.7551 -1.037,2.7827 -0.391,1.028 -0.831,2.0747 -1.321,3.14 -0.491,1.0662 -1.038,2.1 -1.642,3.1022 -0.604,1.0033 -1.264,1.8935 -1.982,2.6701 -0.716,0.7771 -1.497,1.3854 -2.339,1.8238 -0.844,0.4389 -1.755,0.633 -2.736,0.583 -0.454,-0.1255 -0.781,-0.4637 -0.982,-1.0157 -0.201,-0.551 -0.32,-1.2408 -0.358,-2.068 -0.038,-0.8272 0,-1.736 0.113,-2.7264 0.114,-0.9899 0.264,-1.974 0.453,-2.9515 0.189,-0.978 0.397,-1.9054 0.623,-2.7827 0.226,-0.8773 0.44,-1.6172 0.641,-2.2188 0.302,-0.7265 0.302,-1.3352 0,-1.8237 -0.302,-0.489 -0.717,-0.8144 -1.245,-0.978 -0.528,-0.1627 -1.082,-0.156 -1.661,0.0191 -0.578,0.1755 -0.994,0.5639 -1.245,1.1654 -0.428,1.0286 -0.818,2.1811 -1.17,3.4596 -0.352,1.2785 -0.635,2.6014 -0.849,3.9672 -0.214,1.3668 -0.334,2.7207 -0.359,4.0617 -0.001,0.0873 0.003,0.1703 0.002,0.2571 -0.548,1.4574 -1.071,2.5589 -1.568,3.2959 -0.641,0.9532 -1.365,1.3668 -2.17,1.2409 -0.353,-0.1503 -0.585,-0.5009 -0.697,-1.0529 -0.115,-0.551 -0.152,-1.2279 -0.115,-2.0308 0.039,-0.8015 0.133,-1.7102 0.284,-2.7259 0.151,-1.0152 0.339,-2.068 0.565,-3.1586 0.227,-1.091 0.466,-2.1868 0.718,-3.2902 0.251,-1.103 0.477,-2.1434 0.68,-3.1214 -0.026,-0.8773 -0.284,-1.5475 -0.775,-2.0117 -0.49,-0.4632 -1.176,-0.645 -2.056,-0.5453 -0.604,0.2509 -1.051,0.5772 -1.34,0.978 -0.29,0.4007 -0.522,0.915 -0.698,1.5413 -0.101,0.3263 -0.252,0.978 -0.453,1.956 -0.202,0.977 -0.459,2.0995 -0.774,3.3651 -0.314,1.2666 -0.685,2.5885 -1.113,3.9672 -0.428,1.3787 -0.906,2.6266 -1.434,3.7415 -0.529,1.1154 -1.107,2.0117 -1.736,2.6887 -0.629,0.6765 -1.308,0.9527 -2.038,0.8272 -0.403,-0.0754 -0.66,-0.489 -0.773,-1.2408 -0.114,-0.7523 -0.133,-1.6792 -0.057,-2.7827 0.075,-1.1029 0.226,-2.3127 0.453,-3.6284 0.226,-1.3162 0.458,-2.5633 0.698,-3.7421 0.239,-1.1778 0.459,-2.2187 0.66,-3.1208 0.201,-0.9026 0.34,-1.5042 0.415,-1.8047 0,-0.7271 -0.164,-1.3096 -0.49,-1.7489 -0.328,-0.438 -0.724,-0.7142 -1.189,-0.8272 -0.466,-0.1126 -0.944,-0.0501 -1.434,0.1879 -0.491,0.2386 -0.912,0.6712 -1.265,1.2971 -0.125,0.677 -0.289,1.4608 -0.49,2.3505 -0.202,0.8897 -0.396,1.8047 -0.585,2.745 -0.188,0.9402 -0.365,1.8614 -0.528,2.764 -0.164,0.9026 -0.283,1.6921 -0.359,2.3691 -0.05,0.5261 -0.107,1.1721 -0.17,1.9363 -0.063,0.7652 -0.094,1.5733 -0.094,2.4254 0,0.8529 0.062,1.6987 0.189,2.5384 0.125,0.8401 0.352,1.611 0.679,2.3122 0.327,0.7023 0.786,1.2785 1.378,1.7298 0.59,0.4513 1.339,0.7018 2.245,0.7524 0.93,0.0496 1.742,-0.0186 2.434,-0.2071 0.692,-0.1879 1.321,-0.4828 1.887,-0.884 0.566,-0.4002 1.082,-0.8768 1.548,-1.4287 0.464,-0.551 0.924,-1.1526 1.377,-1.8047 0.428,0.9531 0.981,1.6921 1.66,2.2187 0.68,0.5262 1.397,0.8401 2.152,0.9398 0.754,0.0997 1.522,-0.0057 2.302,-0.3196 0.779,-0.3129 1.484,-0.8458 2.113,-1.5981 0.414,-0.4613 0.805,-0.9856 1.172,-1.5652 0.155,0.2714 0.321,0.5333 0.507,0.7752 0.617,0.8029 1.454,1.3539 2.511,1.6549 1.131,0.301 2.238,0.3516 3.32,0.1507 1.082,-0.2003 2.114,-0.5643 3.095,-1.0905 0.981,-0.5267 1.893,-1.1593 2.736,-1.8992 0.843,-0.7394 1.579,-1.5098 2.208,-2.3127 -0.026,0.5767 -0.038,1.1225 -0.038,1.6358 0,0.5143 -0.013,1.0715 -0.038,1.6735 -1.258,0.8778 -2.447,1.9306 -3.566,3.1586 -1.12,1.2279 -2.101,2.5379 -2.944,3.9295 -0.843,1.3911 -1.503,2.8012 -1.981,4.23 -0.478,1.4297 -0.711,2.7645 -0.698,4.0055 0.012,1.241 0.308,2.325 0.886,3.252 0.579,0.928 1.523,1.592 2.831,1.993 1.359,0.427 2.553,0.438 3.586,0.038 1.031,-0.401 1.93,-1.066 2.698,-1.993 0.767,-0.928 1.396,-2.049 1.887,-3.366 0.49,-1.316 0.88,-2.6882 1.17,-4.117 0.289,-1.4288 0.471,-2.8337 0.547,-4.2114 0.075,-1.3792 0.075,-2.6081 0,-3.6857 2.163,-0.9021 3.937,-2.0428 5.321,-3.4219 1.384,-1.3778 2.528,-2.8323 3.434,-4.3617 0.277,-0.376 0.371,-0.8273 0.284,-1.3535 -0.089,-0.5266 -0.302,-0.9779 -0.642,-1.3538 z"
     fill="#0d0c23"
     id="path62" />
  <path
     fill-rule="evenodd"
     clip-rule="evenodd"
     d="m 212.66,77.0934 c 0.076,-0.5762 0.189,-1.1845 0.34,-1.8237 0.151,-0.6393 0.34,-1.2599 0.566,-1.8615 0.226,-0.6016 0.49,-1.1216 0.793,-1.5605 0.302,-0.4384 0.622,-0.7518 0.962,-0.9402 0.34,-0.1875 0.685,-0.1689 1.038,0.0563 0.377,0.2261 0.609,0.7022 0.698,1.4287 0.088,0.728 0,1.5047 -0.264,2.3319 -0.265,0.8277 -0.736,1.6043 -1.416,2.3313 -0.678,0.7276 -1.597,1.2032 -2.754,1.4288 -0.051,-0.3501 -0.038,-0.8143 0.037,-1.3911 z m 13.077,1.5414 c -0.415,-0.1245 -0.811,-0.1374 -1.189,-0.0372 -0.377,0.1002 -0.617,0.3635 -0.717,0.79 -0.202,0.8019 -0.523,1.6229 -0.963,2.4625 -0.44,0.8401 -0.981,1.6359 -1.622,2.3882 -0.641,0.7518 -1.365,1.4163 -2.17,1.9926 -0.805,0.5768 -1.648,0.9904 -2.528,1.2408 -0.882,0.2763 -1.611,0.3073 -2.189,0.094 -0.579,-0.2123 -1.038,-0.5763 -1.378,-1.09 -0.339,-0.5138 -0.585,-1.1345 -0.736,-1.8615 -0.151,-0.727 -0.239,-1.4789 -0.264,-2.2565 1.434,0.1007 2.711,-0.156 3.831,-0.7709 1.119,-0.6135 2.068,-1.4288 2.849,-2.4439 0.779,-1.0152 1.371,-2.1558 1.773,-3.4219 0.402,-1.2657 0.629,-2.5256 0.68,-3.7793 0.025,-1.1783 -0.151,-2.1744 -0.528,-2.9892 -0.378,-0.8143 -0.888,-1.4483 -1.529,-1.8991 -0.641,-0.4513 -1.378,-0.7147 -2.208,-0.7896 -0.83,-0.0753 -1.673,0.0377 -2.528,0.3383 -1.032,0.3511 -1.906,0.9212 -2.623,1.7112 -0.717,0.7895 -1.315,1.7049 -1.793,2.7449 -0.478,1.0405 -0.855,2.162 -1.132,3.3652 -0.277,1.2036 -0.478,2.3881 -0.604,3.554 -0.113,1.0462 -0.173,2.0466 -0.195,3.0121 -0.054,0.1226 -0.106,0.2405 -0.163,0.3717 -0.39,0.8906 -0.844,1.7617 -1.359,2.6137 -0.516,0.8525 -1.088,1.5672 -1.717,2.1434 -0.629,0.5768 -1.283,0.7772 -1.962,0.6016 -0.403,-0.0997 -0.623,-0.5643 -0.661,-1.3911 -0.037,-0.8277 0.006,-1.8552 0.132,-3.0837 0.126,-1.2279 0.271,-2.5574 0.434,-3.9862 0.164,-1.4288 0.245,-2.7946 0.245,-4.0984 0,-1.1282 -0.214,-2.2121 -0.641,-3.253 -0.428,-1.0395 -1.013,-1.9049 -1.755,-2.5942 -0.742,-0.6899 -1.604,-1.1474 -2.585,-1.3725 -0.981,-0.2262 -2.038,-0.0754 -3.17,0.4508 -1.133,0.5267 -2.032,1.2661 -2.698,2.2188 -0.668,0.9531 -1.278,1.9554 -1.831,3.0083 -0.202,-0.8024 -0.497,-1.5476 -0.887,-2.2374 -0.39,-0.6894 -0.867,-1.2909 -1.434,-1.8052 -0.566,-0.5133 -1.202,-0.9145 -1.905,-1.2031 -0.705,-0.2877 -1.448,-0.4322 -2.228,-0.4322 -0.754,0 -1.452,0.1445 -2.094,0.4322 -0.641,0.2886 -1.226,0.6578 -1.755,1.1091 -0.528,0.4518 -1.006,0.9589 -1.434,1.5233 -0.427,0.5638 -0.806,1.122 -1.132,1.673 -0.051,-0.6517 -0.107,-1.2217 -0.17,-1.7112 -0.063,-0.4885 -0.176,-0.9021 -0.34,-1.2403 -0.163,-0.3387 -0.396,-0.5954 -0.698,-0.771 -0.302,-0.175 -0.729,-0.2633 -1.282,-0.2633 -0.278,0 -0.555,0.0563 -0.831,0.1689 -0.277,0.113 -0.523,0.27 -0.736,0.4704 -0.214,0.2013 -0.377,0.4451 -0.49,0.7332 -0.114,0.2881 -0.145,0.6206 -0.095,0.9966 0.025,0.2762 0.095,0.6077 0.208,0.9965 0.113,0.3888 0.22,0.8969 0.321,1.5228 0.1,0.6268 0.182,1.3853 0.245,2.2751 0.062,0.8901 0.081,1.9807 0.056,3.2716 -0.025,1.2914 -0.119,2.8013 -0.283,4.531 -0.164,1.7298 -0.422,3.7354 -0.773,6.0162 -0.051,0.5266 0.15,0.9531 0.604,1.279 0.452,0.3253 0.968,0.5133 1.547,0.5638 0.578,0.0501 1.126,-0.0505 1.641,-0.3005 0.516,-0.2514 0.812,-0.6898 0.887,-1.3162 0.076,-1.1783 0.22,-2.4315 0.434,-3.7606 0.214,-1.3281 0.478,-2.6443 0.793,-3.9481 0.314,-1.3033 0.672,-2.5441 1.076,-3.7229 0.402,-1.1784 0.849,-2.2183 1.339,-3.1209 0.491,-0.9026 1,-1.623 1.529,-2.162 0.528,-0.5391 1.081,-0.8086 1.66,-0.8086 0.705,0 1.251,0.3191 1.642,0.9584 0.389,0.6397 0.666,1.4612 0.83,2.463 0.164,1.0032 0.239,2.1005 0.227,3.2907 -0.014,1.1907 -0.063,2.3376 -0.151,3.4405 -0.089,1.1034 -0.189,2.0871 -0.303,2.952 -0.113,0.8649 -0.194,1.4608 -0.244,1.7861 0,0.5768 0.22,1.0338 0.66,1.3725 0.44,0.3382 0.93,0.5391 1.472,0.6016 0.541,0.0629 1.05,-0.0377 1.528,-0.3011 0.478,-0.2633 0.755,-0.7074 0.83,-1.3348 0.252,-1.8046 0.598,-3.6155 1.038,-5.4331 0.44,-1.8176 0.943,-3.4467 1.51,-4.8884 0.566,-1.4417 1.194,-2.62 1.887,-3.535 0.692,-0.9145 1.427,-1.3724 2.208,-1.3724 0.402,0 0.71,0.2762 0.924,0.8272 0.213,0.5514 0.321,1.3033 0.321,2.256 0,0.7022 -0.057,1.423 -0.17,2.1624 -0.113,0.7395 -0.245,1.5042 -0.396,2.2937 -0.151,0.79 -0.283,1.5981 -0.397,2.4254 -0.113,0.8276 -0.169,1.6921 -0.169,2.5947 0,0.6268 0.063,1.3538 0.188,2.181 0.126,0.8268 0.365,1.6111 0.717,2.35 0.353,0.7399 0.837,1.3663 1.454,1.8801 0.616,0.5138 1.402,0.7709 2.358,0.7709 1.434,0 2.704,-0.3072 3.812,-0.9212 1.107,-0.614 2.057,-1.4159 2.849,-2.4062 0.041,-0.052 0.079,-0.1074 0.119,-0.1589 0.061,0.1464 0.114,0.3015 0.183,0.4408 0.541,1.1029 1.277,1.955 2.208,2.557 0.93,0.6016 2.025,0.9336 3.283,0.9966 1.258,0.062 2.629,-0.1699 4.114,-0.6961 1.106,-0.4012 2.069,-0.9025 2.886,-1.5041 0.818,-0.6016 1.554,-1.3348 2.208,-2.1997 0.655,-0.8649 1.252,-1.8615 1.793,-2.9892 0.541,-1.1287 1.088,-2.4192 1.641,-3.8737 0.101,-0.4003 0.007,-0.7576 -0.282,-1.0715 -0.29,-0.3129 -0.642,-0.5324 -1.057,-0.6583 z"
     fill="#0d0c23"
     id="path64" />
  <path
     fill-rule="evenodd"
     clip-rule="evenodd"
     d="m 246.248,74.4409 c -0.126,0.74 -0.296,1.5552 -0.509,2.4445 -0.215,0.8902 -0.485,1.8113 -0.812,2.764 -0.327,0.9527 -0.73,1.8114 -1.207,2.5756 -0.479,0.7652 -1.026,1.3725 -1.642,1.8238 -0.617,0.4513 -1.327,0.6393 -2.133,0.5639 -0.402,-0.0496 -0.711,-0.3254 -0.924,-0.8272 -0.214,-0.5009 -0.327,-1.1407 -0.34,-1.9178 -0.013,-0.7766 0.056,-1.6291 0.208,-2.557 0.151,-0.9269 0.383,-1.8362 0.698,-2.7264 0.314,-0.8892 0.698,-1.7107 1.151,-2.463 0.453,-0.7518 0.975,-1.3348 1.566,-1.7484 0.591,-0.4136 1.239,-0.6073 1.944,-0.5829 0.704,0.0252 1.459,0.3759 2.264,1.0528 -0.051,0.3263 -0.138,0.8592 -0.264,1.5981 z m 13.416,2.8767 c -0.39,-0.2004 -0.792,-0.2438 -1.208,-0.1312 -0.414,0.1126 -0.711,0.4952 -0.886,1.1468 -0.101,0.7023 -0.327,1.529 -0.679,2.4817 -0.353,0.9526 -0.787,1.8557 -1.302,2.7073 -0.517,0.8524 -1.108,1.5609 -1.774,2.1247 -0.667,0.5644 -1.378,0.8215 -2.132,0.7705 -0.63,-0.0496 -1.07,-0.3692 -1.321,-0.9584 -0.253,-0.5892 -0.384,-1.3281 -0.397,-2.2188 -0.013,-0.8892 0.076,-1.892 0.264,-3.0078 0.189,-1.1154 0.416,-2.2245 0.679,-3.3284 0.265,-1.1025 0.535,-2.162 0.812,-3.1772 0.277,-1.0152 0.503,-1.8739 0.68,-2.5756 0.201,-0.6269 0.138,-1.1593 -0.189,-1.5986 -0.327,-0.438 -0.736,-0.7519 -1.226,-0.9398 -0.492,-0.188 -0.989,-0.2381 -1.492,-0.1503 -0.503,0.0878 -0.83,0.3573 -0.981,0.8081 -1.485,-1.2785 -2.912,-1.9678 -4.283,-2.068 -1.372,-0.1002 -2.636,0.2008 -3.793,0.9026 -1.158,0.7017 -2.183,1.7169 -3.076,3.046 -0.893,1.3291 -1.616,2.7764 -2.17,4.3431 -0.553,1.5666 -0.9,3.1652 -1.037,4.7944 -0.139,1.6296 -0.032,3.1151 0.32,4.4561 0.353,1.341 0.975,2.4383 1.869,3.2898 0.892,0.8525 2.106,1.279 3.641,1.279 0.68,0 1.334,-0.1379 1.963,-0.4136 0.628,-0.2762 1.207,-0.6021 1.736,-0.978 0.528,-0.3759 0.993,-0.7709 1.396,-1.1845 0.402,-0.4136 0.717,-0.758 0.944,-1.0343 0.175,0.9026 0.465,1.6678 0.868,2.2942 0.402,0.6264 0.861,1.1411 1.377,1.5414 0.515,0.4007 1.057,0.6955 1.623,0.8839 0.566,0.188 1.113,0.282 1.641,0.282 1.183,0 2.289,-0.4012 3.322,-1.2036 1.031,-0.8015 1.956,-1.7861 2.774,-2.9516 0.817,-1.1659 1.49,-2.3938 2.018,-3.6852 0.529,-1.2909 0.881,-2.4378 1.057,-3.441 0.176,-0.3759 0.145,-0.7704 -0.094,-1.184 -0.24,-0.4137 -0.554,-0.7204 -0.944,-0.9217 z"
     fill="#0d0c23"
     id="path66" />
  <path
     fill-rule="evenodd"
     clip-rule="evenodd"
     d="m 327.595,98.0772 c -0.214,0.852 -0.548,1.5733 -1.001,2.1618 -0.452,0.589 -1.018,0.897 -1.698,0.922 -0.427,0.025 -0.754,-0.201 -0.981,-0.677 -0.226,-0.477 -0.383,-1.0906 -0.471,-1.8424 -0.089,-0.7523 -0.127,-1.5924 -0.114,-2.5198 0.013,-0.9274 0.05,-1.8424 0.114,-2.745 0.062,-0.9021 0.137,-1.7427 0.226,-2.5193 0.088,-0.7776 0.157,-1.3782 0.207,-1.8047 0.855,0.1002 1.567,0.4694 2.132,1.1091 0.567,0.6393 1.001,1.3973 1.303,2.2751 0.302,0.8773 0.477,1.8238 0.528,2.839 0.05,1.0151 -0.032,1.9487 -0.245,2.8012 z m -13.662,0 c -0.213,0.852 -0.547,1.5733 -1,2.1618 -0.452,0.589 -1.019,0.897 -1.698,0.922 -0.428,0.025 -0.755,-0.201 -0.981,-0.677 -0.227,-0.477 -0.384,-1.0906 -0.472,-1.8424 -0.089,-0.7523 -0.126,-1.5924 -0.113,-2.5198 0.012,-0.9274 0.05,-1.8424 0.113,-2.745 0.062,-0.9021 0.138,-1.7427 0.227,-2.5193 0.087,-0.7776 0.156,-1.3782 0.207,-1.8047 0.855,0.1002 1.566,0.4694 2.132,1.1091 0.566,0.6393 1,1.3973 1.302,2.2751 0.302,0.8773 0.478,1.8238 0.529,2.839 0.05,1.0151 -0.032,1.9487 -0.246,2.8012 z M 299.914,76.719 c -0.026,0.6011 -0.083,1.134 -0.171,1.5977 -0.088,0.4646 -0.207,0.7585 -0.358,0.884 -0.277,-0.1508 -0.617,-0.5386 -1.019,-1.166 -0.403,-0.6263 -0.717,-1.3352 -0.944,-2.1247 -0.226,-0.7896 -0.296,-1.5662 -0.207,-2.3314 0.087,-0.7643 0.484,-1.3591 1.188,-1.7861 0.277,-0.1503 0.516,-0.094 0.718,0.1694 0.201,0.2633 0.364,0.6454 0.49,1.1468 0.126,0.5018 0.214,1.0781 0.264,1.7298 0.051,0.6521 0.063,1.2785 0.039,1.8805 z m -3.341,7.5017 c -0.39,0.4131 -0.824,0.7704 -1.302,1.0715 -0.478,0.301 -0.969,0.5266 -1.471,0.6769 -0.504,0.1508 -0.957,0.188 -1.359,0.1126 -1.133,-0.2252 -2.001,-0.7146 -2.604,-1.4665 -0.604,-0.7518 -0.988,-1.6353 -1.151,-2.6505 -0.164,-1.0156 -0.145,-2.1 0.057,-3.253 0.2,-1.1531 0.54,-2.2245 1.018,-3.2149 0.478,-0.9903 1.057,-1.8428 1.736,-2.557 0.679,-0.7146 1.421,-1.1592 2.227,-1.3353 -0.302,1.2785 -0.403,2.6014 -0.302,3.9672 0.1,1.3663 0.428,2.651 0.981,3.8541 0.352,0.728 0.774,1.3916 1.264,1.9932 0.491,0.602 1.089,1.1158 1.793,1.5418 -0.201,0.4265 -0.497,0.8463 -0.887,1.2599 z m 41.759,-7.1257 c 0.075,-0.5763 0.188,-1.185 0.339,-1.8243 0.151,-0.6388 0.34,-1.2594 0.566,-1.861 0.227,-0.602 0.491,-1.122 0.793,-1.5604 0.302,-0.4384 0.622,-0.7523 0.962,-0.9403 0.34,-0.188 0.685,-0.1694 1.038,0.0563 0.377,0.2261 0.61,0.7022 0.698,1.4288 0.088,0.7275 0,1.5041 -0.264,2.3318 -0.264,0.8272 -0.736,1.6043 -1.415,2.3309 -0.679,0.728 -1.598,1.2036 -2.755,1.4292 -0.051,-0.3506 -0.038,-0.8143 0.038,-1.391 z m 15.209,0 c 0.075,-0.5763 0.188,-1.185 0.339,-1.8243 0.151,-0.6388 0.34,-1.2594 0.566,-1.861 0.227,-0.602 0.491,-1.122 0.793,-1.5604 0.302,-0.4384 0.623,-0.7523 0.962,-0.9403 0.34,-0.188 0.686,-0.1694 1.038,0.0563 0.377,0.2261 0.61,0.7022 0.698,1.4288 0.088,0.7275 0,1.5041 -0.264,2.3318 -0.264,0.8272 -0.736,1.6043 -1.415,2.3309 -0.679,0.728 -1.598,1.2036 -2.755,1.4292 -0.051,-0.3506 -0.038,-0.8143 0.038,-1.391 z m 14.133,2.1996 c -0.29,-0.3129 -0.641,-0.5323 -1.057,-0.6583 -0.415,-0.125 -0.811,-0.1374 -1.189,-0.0372 -0.377,0.1002 -0.616,0.3635 -0.717,0.7895 -0.201,0.8024 -0.522,1.6234 -0.962,2.4626 -0.44,0.8405 -0.981,1.6363 -1.622,2.3881 -0.642,0.7518 -1.366,1.4169 -2.17,1.9931 -0.806,0.5768 -1.649,0.9904 -2.529,1.2404 -0.881,0.2767 -1.611,0.3077 -2.189,0.0944 -0.579,-0.2127 -1.038,-0.5762 -1.378,-1.09 -0.339,-0.5143 -0.584,-1.1345 -0.736,-1.862 -0.15,-0.7265 -0.239,-1.4784 -0.264,-2.256 1.435,0.1007 2.712,-0.156 3.831,-0.7709 1.119,-0.6139 2.069,-1.4292 2.85,-2.4444 0.779,-1.0147 1.37,-2.1553 1.773,-3.4214 0.402,-1.2661 0.629,-2.5256 0.679,-3.7793 0.025,-1.1783 -0.151,-2.1748 -0.528,-2.9896 -0.377,-0.8144 -0.887,-1.4479 -1.528,-1.8987 -0.642,-0.4518 -1.378,-0.7147 -2.209,-0.79 -0.829,-0.0754 -1.673,0.0381 -2.528,0.3382 -1.032,0.3516 -1.906,0.9217 -2.622,1.7112 -0.717,0.79 -1.315,1.7055 -1.793,2.745 -0.479,1.0409 -0.856,2.162 -1.133,3.3656 -0.277,1.2031 -0.478,2.3881 -0.603,3.5536 -0.122,1.1311 -0.189,2.2135 -0.204,3.2496 -0.095,0.2066 -0.197,0.4141 -0.306,0.6231 -0.441,0.8405 -0.981,1.6363 -1.623,2.3881 -0.641,0.7518 -1.365,1.4169 -2.17,1.9931 -0.805,0.5768 -1.648,0.9904 -2.528,1.2404 -0.882,0.2767 -1.611,0.3077 -2.189,0.0944 -0.579,-0.2127 -1.038,-0.5762 -1.378,-1.09 -0.339,-0.5143 -0.585,-1.1345 -0.735,-1.862 -0.152,-0.7265 -0.24,-1.4784 -0.265,-2.256 1.434,0.1007 2.711,-0.156 3.831,-0.7709 1.119,-0.6139 2.069,-1.4292 2.849,-2.4444 0.78,-1.0147 1.371,-2.1553 1.774,-3.4214 0.402,-1.2661 0.629,-2.5256 0.679,-3.7793 0.025,-1.1783 -0.151,-2.1748 -0.528,-2.9896 -0.378,-0.8144 -0.887,-1.4479 -1.529,-1.8987 -0.641,-0.4518 -1.377,-0.7147 -2.207,-0.79 -0.831,-0.0754 -1.674,0.0381 -2.529,0.3382 -1.032,0.3516 -1.906,0.9217 -2.623,1.7112 -0.717,0.79 -1.315,1.7055 -1.792,2.745 -0.478,1.0409 -0.856,2.162 -1.132,3.3656 -0.278,1.2031 -0.479,2.3881 -0.604,3.5536 -0.072,0.6573 -0.119,1.2947 -0.154,1.9206 -0.244,0.2061 -0.481,0.4136 -0.733,0.6173 -0.868,0.7022 -1.781,1.3348 -2.736,1.8991 -0.957,0.5644 -1.951,1.0281 -2.982,1.3916 -1.032,0.3635 -2.088,0.583 -3.17,0.6579 l 2.34,-24.9686 c 0.151,-0.5266 0.075,-0.9899 -0.226,-1.3911 -0.302,-0.4012 -0.692,-0.6769 -1.17,-0.8272 -0.478,-0.1507 -0.988,-0.1378 -1.529,0.0372 -0.541,0.1761 -0.987,0.5773 -1.34,1.2032 -0.176,0.9531 -0.358,2.2564 -0.546,3.9109 -0.19,1.6544 -0.378,3.4596 -0.567,5.415 -0.188,1.9554 -0.377,3.9734 -0.566,6.0538 -0.188,2.0814 -0.353,4.024 -0.49,5.8287 -0.007,0.0801 -0.012,0.1526 -0.018,0.2318 -0.22,0.1861 -0.434,0.3735 -0.662,0.5577 -0.867,0.7022 -1.78,1.3348 -2.736,1.8991 -0.957,0.5644 -1.95,1.0281 -2.981,1.3916 -1.032,0.3635 -2.089,0.583 -3.17,0.6579 l 2.339,-24.9686 c 0.152,-0.5266 0.076,-0.9899 -0.226,-1.3911 -0.302,-0.4012 -0.692,-0.6769 -1.17,-0.8272 -0.478,-0.1507 -0.987,-0.1378 -1.529,0.0372 -0.541,0.1761 -0.987,0.5773 -1.339,1.2032 -0.176,0.9531 -0.359,2.2564 -0.547,3.9109 -0.189,1.6544 -0.378,3.4596 -0.566,5.415 -0.189,1.9554 -0.378,3.9734 -0.567,6.0538 -0.188,2.0814 -0.352,4.024 -0.49,5.8287 -0.003,0.0362 -0.005,0.0691 -0.008,0.1054 -0.396,0.1827 -0.826,0.343 -1.294,0.4775 -0.479,0.1384 -1.019,0.2199 -1.623,0.2447 0.101,-0.4517 0.182,-0.9531 0.245,-1.5046 0.063,-0.551 0.114,-1.1277 0.152,-1.7298 0.037,-0.6011 0.049,-1.2031 0.037,-1.8047 -0.013,-0.602 -0.044,-1.153 -0.094,-1.6549 -0.126,-1.0772 -0.358,-2.099 -0.698,-3.0646 -0.34,-0.9646 -0.799,-1.7727 -1.377,-2.4253 -0.58,-0.6517 -1.303,-1.0906 -2.171,-1.3157 -0.868,-0.2257 -1.881,-0.1508 -3.038,0.2251 -1.711,-0.2251 -3.252,-0.0682 -4.623,0.4704 -1.371,0.5396 -2.56,1.3224 -3.567,2.35 -1.005,1.0285 -1.829,2.2374 -2.471,3.6289 -0.642,1.3911 -1.07,2.8204 -1.284,4.2864 -0.09,0.6216 -0.134,1.2403 -0.148,1.8576 -0.389,0.7948 -0.815,1.4894 -1.286,2.0723 -0.666,0.8272 -1.358,1.5042 -2.075,2.0304 -0.717,0.5266 -1.428,0.9278 -2.132,1.2036 -0.705,0.2762 -1.334,0.4642 -1.887,0.5639 -0.654,0.1254 -1.284,0.1383 -1.887,0.0377 -0.604,-0.0998 -1.158,-0.3884 -1.66,-0.8649 -0.403,-0.3507 -0.712,-0.915 -0.925,-1.6922 -0.214,-0.7771 -0.34,-1.6601 -0.377,-2.6509 -0.038,-0.9904 0,-2.0247 0.113,-3.1023 0.113,-1.0777 0.307,-2.0995 0.585,-3.0646 0.276,-0.9651 0.628,-1.83 1.056,-2.5952 0.427,-0.7638 0.931,-1.3095 1.51,-1.6353 0.326,0.0505 0.528,0.2442 0.604,0.5824 0.075,0.3388 0.094,0.74 0.056,1.2037 -0.037,0.4641 -0.094,0.9402 -0.169,1.4287 -0.076,0.489 -0.114,0.8969 -0.114,1.2222 0.126,0.677 0.371,1.2036 0.736,1.5796 0.364,0.3759 0.774,0.5958 1.227,0.6578 0.453,0.063 0.899,-0.0434 1.34,-0.3196 0.439,-0.2753 0.798,-0.7142 1.075,-1.3162 0.025,0.0253 0.063,0.0377 0.113,0.0377 l 0.529,-4.7753 c 0.15,-0.6522 0.049,-1.2284 -0.302,-1.7298 -0.353,-0.5014 -0.818,-0.79 -1.397,-0.8649 -0.73,-1.0529 -1.717,-1.6105 -2.962,-1.6735 -1.246,-0.0625 -2.523,0.3449 -3.831,1.2222 -0.805,0.5772 -1.516,1.3725 -2.132,2.3876 -0.617,1.0157 -1.12,2.1435 -1.51,3.3843 -0.39,1.2408 -0.667,2.5513 -0.83,3.9299 -0.164,1.3787 -0.195,2.7202 -0.095,4.023 0.101,1.3043 0.334,2.5327 0.699,3.6853 0.364,1.1535 0.874,2.1186 1.529,2.8952 0.553,0.677 1.181,1.1726 1.886,1.486 0.704,0.3135 1.44,0.5072 2.208,0.5825 0.767,0.0749 1.528,0.0434 2.284,-0.094 0.754,-0.1373 1.471,-0.3315 2.15,-0.5829 0.881,-0.3254 1.787,-0.7394 2.718,-1.2408 0.93,-0.5009 1.823,-1.103 2.679,-1.8052 0.45,-0.3692 0.883,-0.7719 1.302,-1.2036 0.191,0.4713 0.404,0.9274 0.661,1.3543 0.679,1.1278 1.597,2.0433 2.754,2.745 1.157,0.7018 2.579,1.0395 4.265,1.0152 1.812,-0.0253 3.484,-0.4823 5.019,-1.3725 1.535,-0.8892 2.793,-2.2002 3.775,-3.9295 1.469,0 2.915,-0.2414 4.336,-0.7208 -0.011,0.1517 -0.024,0.3115 -0.035,0.4579 -0.1,1.3286 -0.151,2.2308 -0.151,2.7073 -0.024,0.8272 -0.081,1.8486 -0.169,3.0641 -0.088,1.2161 -0.145,2.4946 -0.17,3.8356 -0.025,1.341 0.025,2.6948 0.151,4.0616 0.126,1.3658 0.39,2.6067 0.792,3.7227 0.403,1.115 0.975,2.062 1.717,2.839 0.742,0.777 1.718,1.241 2.926,1.391 1.282,0.175 2.389,-0.05 3.32,-0.677 0.931,-0.627 1.686,-1.485 2.265,-2.575 0.578,-1.091 0.987,-2.351 1.226,-3.7795 0.239,-1.4288 0.308,-2.8642 0.208,-4.3059 -0.101,-1.4417 -0.365,-2.8013 -0.793,-4.0793 -0.428,-1.279 -1.019,-2.3318 -1.774,-3.1595 0.454,-0.1245 0.994,-0.3626 1.623,-0.7142 0.628,-0.3506 1.277,-0.7456 1.944,-1.1845 0.163,-0.1078 0.325,-0.2213 0.488,-0.332 -0.061,0.8883 -0.092,1.5218 -0.092,1.8929 -0.025,0.8272 -0.081,1.8486 -0.17,3.0641 -0.087,1.2161 -0.144,2.4946 -0.169,3.8356 -0.025,1.341 0.025,2.6948 0.15,4.0616 0.126,1.3658 0.391,2.6067 0.793,3.7227 0.402,1.115 0.975,2.062 1.717,2.839 0.742,0.777 1.717,1.241 2.925,1.391 1.283,0.175 2.39,-0.05 3.321,-0.677 0.931,-0.627 1.685,-1.485 2.264,-2.575 0.579,-1.091 0.987,-2.351 1.227,-3.7795 0.239,-1.4288 0.307,-2.8642 0.207,-4.3059 -0.101,-1.4417 -0.365,-2.8013 -0.792,-4.0793 -0.428,-1.279 -1.019,-2.3318 -1.774,-3.1595 0.453,-0.1245 0.994,-0.3626 1.623,-0.7142 0.628,-0.3506 1.276,-0.7456 1.944,-1.1845 0.346,-0.228 0.69,-0.4632 1.034,-0.7051 0.13,1.2261 0.408,2.3013 0.852,3.2058 0.541,1.1035 1.277,1.9555 2.208,2.5575 0.93,0.6011 2.025,0.9336 3.284,0.9961 1.257,0.062 2.628,-0.1694 4.113,-0.696 1.107,-0.4007 2.069,-0.9021 2.887,-1.5037 0.817,-0.602 1.553,-1.3353 2.207,-2.1997 0.038,-0.0501 0.074,-0.1045 0.111,-0.155 0.116,0.3511 0.246,0.6884 0.399,1.0008 0.541,1.1035 1.277,1.9555 2.208,2.5575 0.93,0.6011 2.025,0.9336 3.283,0.9961 1.258,0.062 2.629,-0.1694 4.114,-0.696 1.107,-0.4007 2.069,-0.9021 2.887,-1.5037 0.817,-0.602 1.553,-1.3353 2.208,-2.1997 0.654,-0.8654 1.251,-1.8619 1.792,-2.9897 0.541,-1.1282 1.088,-2.4187 1.642,-3.8732 0.101,-0.4007 0.006,-0.758 -0.283,-1.0715 z"
     fill="#0d0c23"
     id="path68" />
  <path
     d="m 70.9439,56.646 -0.0432,-0.0254 -0.0999,-0.0305 c 0.0402,0.0339 0.0905,0.0536 0.1431,0.0559 z"
     fill="#0d0c22"
     id="path70" />
  <path
     d="m 71.5737,61.144 -0.0483,0.0136 z"
     fill="#0d0c22"
     id="path72" />
  <path
     d="m 70.9616,56.6391 c -0.0061,-8e-4 -0.0121,-0.0023 -0.018,-0.0043 -3e-4,0.004 -3e-4,0.008 0,0.012 0.0066,-9e-4 0.0129,-0.0036 0.018,-0.0077 z"
     fill="#0d0c22"
     id="path74" />
  <path
     d="m 70.9434,56.6466 h 0.0064 v -0.004 z"
     fill="#0d0c22"
     id="path76" />
  <path
     d="m 71.5332,61.1357 0.0729,-0.0415 0.0271,-0.0152 0.0245,-0.0263 c -0.0462,0.0199 -0.0883,0.0481 -0.1245,0.083 z"
     fill="#0d0c22"
     id="path78" />
  <path
     d="m 71.0706,56.7442 -0.0711,-0.0678 -0.0483,-0.0263 c 0.0259,0.0458 0.0688,0.0796 0.1194,0.0941 z"
     fill="#0d0c22"
     id="path80" />
  <path
     d="m 53.1683,100.392 c -0.0569,0.024 -0.1067,0.063 -0.1449,0.112 l 0.0449,-0.029 c 0.0305,-0.028 0.0737,-0.061 0.1,-0.083 z"
     fill="#0d0c22"
     id="path82" />
  <path
     d="m 63.564,98.3465 c 0,-0.0643 -0.0314,-0.0525 -0.0237,0.1762 0,-0.0186 0.0076,-0.0373 0.011,-0.0551 0.0042,-0.0406 0.0076,-0.0804 0.0127,-0.1211 z"
     fill="#0d0c22"
     id="path84" />
  <path
     d="m 62.4847,100.392 c -0.0569,0.024 -0.1067,0.063 -0.1449,0.112 l 0.0449,-0.029 c 0.0305,-0.028 0.0737,-0.061 0.1,-0.083 z"
     fill="#0d0c22"
     id="path86" />
  <path
     d="m 45.8478,100.878 c -0.0432,-0.038 -0.096,-0.062 -0.1525,-0.071 0.0457,0.022 0.0915,0.044 0.122,0.061 z"
     fill="#0d0c22"
     id="path88" />
  <path
     d="m 44.2008,99.3006 c -0.0068,-0.0667 -0.0273,-0.1313 -0.0602,-0.1898 0.0233,0.0609 0.0429,0.1231 0.0585,0.1864 z"
     fill="#0d0c22"
     id="path90" />
  <path
     d="m 55.2668,71.0851 c -2.2615,0.9681 -4.828,2.0658 -8.1542,2.0658 -1.3915,-0.0028 -2.7762,-0.1936 -4.1165,-0.5675 l 2.3005,23.6191 c 0.0814,0.9872 0.5311,1.9077 1.2599,2.5786 0.7287,0.671 1.6831,1.0434 2.6736,1.0432 0,0 3.2619,0.1694 4.3503,0.1694 1.1714,0 4.684,-0.1694 4.684,-0.1694 0.9904,0 1.9446,-0.3725 2.6732,-1.0434 0.7285,-0.671 1.1781,-1.5914 1.2595,-2.5784 l 2.464,-26.1 C 63.56,69.7264 62.4487,69.4766 61.196,69.4766 c -2.1667,-9e-4 -3.9124,0.7453 -5.9292,1.6085 z"
     fill="#ffdd00"
     id="path92" />
  <path
     d="m 35.873,61.0081 0.039,0.0364 0.0254,0.0152 C 35.9178,61.0403 35.8963,61.023 35.873,61.0081 Z"
     fill="#0d0c22"
     id="path94" />
  <path
     d="m 75.2982,58.8281 -0.3464,-1.7474 c -0.3109,-1.5678 -1.0164,-3.0492 -2.6258,-3.6159 -0.5158,-0.1813 -1.1011,-0.2592 -1.4966,-0.6344 -0.3956,-0.3752 -0.5125,-0.958 -0.604,-1.4984 -0.1694,-0.9918 -0.3286,-1.9846 -0.5022,-2.9747 -0.15,-0.8513 -0.2685,-1.8076 -0.659,-2.5885 -0.5082,-1.0486 -1.5628,-1.6619 -2.6114,-2.0676 -0.5373,-0.2006 -1.0856,-0.3702 -1.6423,-0.5082 -2.6199,-0.6911 -5.3744,-0.9453 -8.0696,-1.0901 -3.235,-0.1785 -6.4786,-0.1247 -9.7059,0.1609 -2.4022,0.2186 -4.9322,0.4828 -7.2149,1.3138 -0.8343,0.304 -1.6941,0.6691 -2.3285,1.3137 -0.7784,0.7919 -1.0325,2.0167 -0.4641,3.0044 0.404,0.7013 1.0884,1.1968 1.8143,1.5246 0.9455,0.4224 1.9329,0.7437 2.9459,0.9588 2.8206,0.6234 5.7419,0.8682 8.6235,0.9724 3.1938,0.1289 6.3927,0.0244 9.5713,-0.3126 0.786,-0.0864 1.5706,-0.19 2.3538,-0.3108 0.9224,-0.1415 1.5145,-1.3476 1.2426,-2.1879 -0.3253,-1.0045 -1.1994,-1.3942 -2.1878,-1.2425 -0.1457,0.0228 -0.2906,0.044 -0.4363,0.0652 l -0.105,0.0152 c -0.3348,0.0424 -0.6697,0.0819 -1.0045,0.1186 -0.6918,0.0746 -1.3852,0.1355 -2.0803,0.183 -1.5568,0.1084 -3.1179,0.1584 -4.6781,0.1609 -1.5331,0 -3.067,-0.0432 -4.5968,-0.144 -0.6979,-0.0457 -1.3942,-0.1039 -2.0887,-0.1745 -0.3159,-0.033 -0.631,-0.0677 -0.9461,-0.1067 L 45.1554,47.3773 45.0902,47.368 44.7794,47.3231 c -0.6353,-0.0957 -1.2706,-0.2058 -1.8991,-0.3388 -0.0634,-0.0141 -0.1201,-0.0494 -0.1608,-0.1001 -0.0406,-0.0506 -0.0628,-0.1136 -0.0628,-0.1786 0,-0.065 0.0222,-0.128 0.0628,-0.1787 0.0407,-0.0506 0.0974,-0.0859 0.1608,-0.1 h 0.0119 c 0.5446,-0.116 1.0935,-0.2151 1.6441,-0.3015 0.1835,-0.0288 0.3676,-0.057 0.5522,-0.0847 h 0.0051 c 0.3447,-0.0229 0.6912,-0.0847 1.0342,-0.1254 2.9846,-0.3104 5.987,-0.4163 8.986,-0.3168 1.456,0.0424 2.9112,0.1279 4.3605,0.2753 0.3117,0.0322 0.6217,0.0661 0.9317,0.1042 0.1186,0.0144 0.238,0.0313 0.3574,0.0457 l 0.2406,0.0348 c 0.7013,0.1044 1.399,0.2312 2.0929,0.3803 1.0283,0.2236 2.3488,0.2964 2.8062,1.423 0.1457,0.3574 0.2118,0.7547 0.2922,1.1299 l 0.1025,0.4786 c 0.0027,0.0085 0.0047,0.0173 0.006,0.0262 0.2422,1.1294 0.4847,2.2587 0.7275,3.3881 0.0178,0.0834 0.0183,0.1696 0.0013,0.2532 -0.017,0.0836 -0.0511,0.1628 -0.1,0.2327 -0.049,0.0698 -0.1118,0.1289 -0.1846,0.1734 -0.0728,0.0445 -0.1539,0.0735 -0.2384,0.0852 h -0.0068 l -0.1482,0.0203 -0.1466,0.0195 c -0.4641,0.0605 -0.9289,0.1169 -1.3941,0.1694 -0.9165,0.1045 -1.8344,0.1948 -2.7537,0.2711 -1.8267,0.1519 -3.6571,0.2515 -5.4912,0.299 -0.9346,0.0248 -1.8688,0.0364 -2.8028,0.0347 -3.7176,-0.0029 -7.4319,-0.219 -11.1247,-0.6471 -0.3998,-0.0475 -0.7996,-0.0983 -1.1994,-0.1499 0.31,0.0398 -0.2253,-0.0305 -0.3337,-0.0458 -0.2541,-0.0356 -0.5082,-0.0725 -0.7623,-0.1109 -0.853,-0.1279 -1.7008,-0.2855 -2.5521,-0.4235 -1.0291,-0.1694 -2.0134,-0.0847 -2.9442,0.4235 -0.7641,0.4181 -1.3826,1.0593 -1.7728,1.838 -0.4015,0.8301 -0.521,1.7338 -0.7005,2.6257 -0.1796,0.892 -0.4591,1.8516 -0.3532,2.7673 0.2278,1.976 1.6093,3.582 3.5964,3.9411 1.8694,0.3388 3.7489,0.6133 5.6335,0.847 7.4032,0.9067 14.8824,1.0152 22.3088,0.3236 0.6047,-0.0565 1.2087,-0.118 1.8117,-0.1846 0.1884,-0.0207 0.379,0.001 0.5579,0.0635 0.1789,0.0625 0.3415,0.1642 0.476,0.2977 0.1345,0.1335 0.2374,0.2954 0.3012,0.4739 0.0638,0.1784 0.0869,0.3688 0.0676,0.5573 l -0.188,1.8279 c -0.3789,3.6936 -0.7578,7.3869 -1.1367,11.0799 -0.3953,3.8782 -0.7931,7.7561 -1.1935,11.6337 -0.1129,1.0921 -0.2259,2.1839 -0.3388,3.2754 -0.1084,1.0749 -0.1237,2.1837 -0.3278,3.2458 -0.3219,1.6703 -1.4526,2.6964 -3.1026,3.0714 -1.5117,0.344 -3.0559,0.525 -4.6061,0.539 -1.7186,0.009 -3.4363,-0.067 -5.1549,-0.058 -1.8347,0.01 -4.0818,-0.159 -5.498,-1.525 -1.2443,-1.199 -1.4162,-3.0768 -1.5856,-4.7006 -0.2259,-2.1497 -0.4498,-4.2991 -0.6717,-6.4483 L 41.7275,77.0305 40.922,69.2981 c -0.0135,-0.1279 -0.0271,-0.2541 -0.0398,-0.3829 -0.0965,-0.9224 -0.7496,-1.8253 -1.7787,-1.7787 -0.8809,0.039 -1.8821,0.7877 -1.7787,1.7787 l 0.5971,5.7327 1.235,11.8582 c 0.3517,3.3683 0.7027,6.7372 1.0528,10.1066 0.0678,0.6454 0.1313,1.2926 0.2024,1.938 0.3871,3.5273 3.0806,5.4273 6.4162,5.9633 1.9481,0.313 3.9437,0.377 5.9206,0.41 2.5343,0.04 5.094,0.138 7.5868,-0.321 3.6938,-0.678 6.4653,-3.144 6.8608,-6.9705 0.1129,-1.1045 0.2259,-2.2093 0.3388,-3.3144 0.3755,-3.6546 0.7505,-7.3094 1.1249,-10.9646 l 1.2247,-11.9429 0.5616,-5.4735 c 0.028,-0.2714 0.1426,-0.5266 0.3269,-0.7278 0.1843,-0.2012 0.4284,-0.3377 0.6963,-0.3894 1.0562,-0.2058 2.0659,-0.5573 2.8172,-1.3611 1.196,-1.2799 1.434,-2.9485 1.0113,-4.6307 z m -39.7327,1.1808 c 0.0161,-0.0077 -0.0136,0.1304 -0.0263,0.1948 -0.0025,-0.0974 0.0026,-0.1838 0.0263,-0.1948 z m 0.1025,0.7928 c 0.0085,-0.006 0.0339,0.0279 0.0601,0.0686 -0.0398,-0.0373 -0.0652,-0.0652 -0.061,-0.0686 z m 0.1008,0.1329 c 0.0364,0.0619 0.0559,0.1008 0,0 z m 0.2024,0.1644 h 0.0051 c 0,0.0059 0.0093,0.0118 0.0127,0.0178 -0.0056,-0.0066 -0.0118,-0.0125 -0.0186,-0.0178 z m 35.4494,-0.2457 c -0.3795,0.3609 -0.9512,0.5286 -1.5162,0.6124 -6.3357,0.9402 -12.7637,1.4162 -19.1688,1.2062 -4.5841,-0.1567 -9.1199,-0.6658 -13.6582,-1.307 -0.4447,-0.0626 -0.9266,-0.144 -1.2324,-0.4718 -0.576,-0.6183 -0.2931,-1.8634 -0.1431,-2.6105 0.1372,-0.6844 0.3998,-1.5966 1.2137,-1.694 1.2706,-0.1491 2.7461,0.3871 4.003,0.5777 1.5134,0.2309 3.0324,0.4159 4.557,0.5548 6.5068,0.5929 13.1228,0.5005 19.6008,-0.3668 1.1808,-0.1587 2.3573,-0.343 3.5296,-0.5531 1.0443,-0.1872 2.2022,-0.5387 2.8332,0.5429 0.4329,0.7369 0.4904,1.7229 0.4235,2.5555 -0.0206,0.3628 -0.1791,0.7039 -0.443,0.9537 z"
     fill="#0d0c22"
     id="path96" />
</svg>
