<?xml version="1.0" encoding="UTF-8" standalone="no"?>
<svg
   xmlns:dc="http://purl.org/dc/elements/1.1/"
   xmlns:cc="http://creativecommons.org/ns#"
   xmlns:rdf="http://www.w3.org/1999/02/22-rdf-syntax-ns#"
   xmlns:svg="http://www.w3.org/2000/svg"
   xmlns="http://www.w3.org/2000/svg"
   xmlns:sodipodi="http://sodipodi.sourceforge.net/DTD/sodipodi-0.dtd"
   xmlns:inkscape="http://www.inkscape.org/namespaces/inkscape"
   width="55.677319mm"
   height="9.8248901mm"
   viewBox="0 0 55.677319 9.8248888"
   version="1.1"
   id="svg8"
   inkscape:version="1.0.2 (e86c8708, 2021-01-15)"
   sodipodi:docname="logo_manu.svg">
  <defs
     id="defs2" />
  <sodipodi:namedview
     id="base"
     pagecolor="#ffffff"
     bordercolor="#666666"
     borderopacity="1.0"
     inkscape:pageopacity="0.0"
     inkscape:pageshadow="2"
     inkscape:zoom="2.133551"
     inkscape:cx="90.510253"
     inkscape:cy="61.233398"
     inkscape:document-units="mm"
     inkscape:current-layer="layer1"
     inkscape:document-rotation="0"
     showgrid="false"
     fit-margin-top="0.4"
     fit-margin-left="0"
     fit-margin-right="0"
     fit-margin-bottom="0.5"
     inkscape:window-width="1252"
     inkscape:window-height="872"
     inkscape:window-x="0"
     inkscape:window-y="0"
     inkscape:window-maximized="0" />
  <metadata
     id="metadata5">
    <rdf:RDF>
      <cc:Work
         rdf:about="">
        <dc:format>image/svg+xml</dc:format>
        <dc:type
           rdf:resource="http://purl.org/dc/dcmitype/StillImage" />
        <dc:title></dc:title>
      </cc:Work>
    </rdf:RDF>
  </metadata>
  <g
     inkscape:label="Layer 1"
     inkscape:groupmode="layer"
     id="layer1"
     transform="translate(-64.068676,-78.308517)">
    <g
       aria-label="Manu Kalia"
       id="text835"
       style="font-size:11.7469px;line-height:1.25;font-family:Helvetica;-inkscape-font-specification:Helvetica;stroke-width:0.293673">
      <path
         d="m 65.00361,79.167381 3.080119,7.370491 3.091592,-7.370491 h 0.940669 v 8.351311 h -0.705502 v -3.636491 l 0.05736,-3.728264 -3.108799,7.364755 h -0.5449 l -3.097327,-7.336076 0.05736,3.676641 v 3.659435 h -0.705502 v -8.351311 z"
         style="font-style:normal;font-variant:normal;font-weight:300;font-stretch:normal;font-family:Roboto;-inkscape-font-specification:'Roboto Light';stroke-width:0.293673"
         id="path883" />
      <path
         d="m 77.98944,87.518692 q -0.103244,-0.292525 -0.131923,-0.866104 -0.361355,0.470334 -0.923462,0.728445 -0.556372,0.252375 -1.181573,0.252375 -0.894784,0 -1.451155,-0.499014 -0.550636,-0.499014 -0.550636,-1.261874 0,-0.906255 0.751388,-1.433948 0.757125,-0.527692 2.105036,-0.527692 h 1.244666 v -0.705503 q 0,-0.665351 -0.412977,-1.043914 -0.407241,-0.384298 -1.193044,-0.384298 -0.716974,0 -1.187309,0.367091 -0.470335,0.367091 -0.470335,0.883312 l -0.688295,-0.0057 q 0,-0.739917 0.688295,-1.279081 0.688295,-0.5449 1.692058,-0.5449 1.038179,0 1.634701,0.521956 0.602258,0.516222 0.619465,1.44542 v 2.936725 q 0,0.900519 0.189281,1.347911 v 0.06883 z m -2.156657,-0.493278 q 0.688295,0 1.227459,-0.332676 0.5449,-0.332676 0.791539,-0.889047 v -1.365119 h -1.227459 q -1.026707,0.01147 -1.606022,0.378563 -0.579314,0.361354 -0.579314,0.998027 0,0.521957 0.384298,0.866105 0.390033,0.344147 1.009499,0.344147 z"
         style="font-style:normal;font-variant:normal;font-weight:300;font-stretch:normal;font-family:Roboto;-inkscape-font-specification:'Roboto Light';stroke-width:0.293673"
         id="path885" />
      <path
         d="m 81.012203,81.312566 0.02294,1.061122 q 0.349883,-0.573579 0.87184,-0.871841 0.521957,-0.303996 1.152894,-0.303996 0.998028,0 1.48557,0.562107 0.487542,0.562108 0.493278,1.686323 v 4.072411 h -0.682559 v -4.078147 q -0.0057,-0.83169 -0.355619,-1.238931 -0.344148,-0.407241 -1.107008,-0.407241 -0.636673,0 -1.129951,0.401505 -0.487542,0.39577 -0.722709,1.072593 v 4.250221 h -0.68256 v -6.206126 z"
         style="font-style:normal;font-variant:normal;font-weight:300;font-stretch:normal;font-family:Roboto;-inkscape-font-specification:'Roboto Light';stroke-width:0.293673"
         id="path887" />
      <path
         d="m 90.797462,86.732889 q -0.619465,0.900519 -1.978848,0.900519 -0.992292,0 -1.508513,-0.573579 -0.516221,-0.579315 -0.527693,-1.709266 v -4.037997 h 0.68256 v 3.95196 q 0,1.77236 1.433947,1.77236 1.491306,0 1.887075,-1.233195 v -4.491125 h 0.688295 v 6.206126 h -0.665351 z"
         style="font-style:normal;font-variant:normal;font-weight:300;font-stretch:normal;font-family:Roboto;-inkscape-font-specification:'Roboto Light';stroke-width:0.293673"
         id="path889" />
      <path
         d="m 98.162215,83.371715 -1.175837,1.15863 v 2.988347 h -0.705502 v -8.351311 h 0.705502 v 4.502595 l 4.278902,-4.502595 h 0.88905 l -3.498837,3.716792 3.768417,4.634519 h -0.86037 z"
         style="font-style:normal;font-variant:normal;font-weight:300;font-stretch:normal;font-family:Roboto;-inkscape-font-specification:'Roboto Light';stroke-width:0.293673"
         id="path891" />
      <path
         d="m 107.44846,87.518692 q -0.10324,-0.292525 -0.13192,-0.866104 -0.36135,0.470334 -0.92346,0.728445 -0.55637,0.252375 -1.18157,0.252375 -0.89479,0 -1.45116,-0.499014 -0.55064,-0.499014 -0.55064,-1.261874 0,-0.906255 0.75139,-1.433948 0.75713,-0.527692 2.10504,-0.527692 h 1.24466 v -0.705503 q 0,-0.665351 -0.41297,-1.043914 -0.40724,-0.384298 -1.19305,-0.384298 -0.71697,0 -1.18731,0.367091 -0.47033,0.367091 -0.47033,0.883312 l -0.6883,-0.0057 q 0,-0.739917 0.6883,-1.279081 0.68829,-0.5449 1.69206,-0.5449 1.03818,0 1.6347,0.521956 0.60226,0.516222 0.61946,1.44542 v 2.936725 q 0,0.900519 0.18928,1.347911 v 0.06883 z m -2.15665,-0.493278 q 0.68829,0 1.22746,-0.332676 0.5449,-0.332676 0.79153,-0.889047 v -1.365119 h -1.22745 q -1.02671,0.01147 -1.60603,0.378563 -0.57931,0.361354 -0.57931,0.998027 0,0.521957 0.3843,0.866105 0.39003,0.344147 1.0095,0.344147 z"
         style="font-style:normal;font-variant:normal;font-weight:300;font-stretch:normal;font-family:Roboto;-inkscape-font-specification:'Roboto Light';stroke-width:0.293673"
         id="path893" />
      <path
         d="m 110.58594,87.518692 h -0.68829 v -8.810175 h 0.68829 z"
         style="font-style:normal;font-variant:normal;font-weight:300;font-stretch:normal;font-family:Roboto;-inkscape-font-specification:'Roboto Light';stroke-width:0.293673"
         id="path895" />
      <path
         d="m 113.2244,87.518692 h -0.68829 v -6.206126 h 0.68829 z m -0.80874,-8.001428 q 0,-0.195017 0.12618,-0.32694 0.12619,-0.137659 0.34415,-0.137659 0.21796,0 0.34415,0.137659 0.13192,0.131923 0.13192,0.32694 0,0.195017 -0.13192,0.32694 -0.12619,0.131923 -0.34415,0.131923 -0.21796,0 -0.34415,-0.131923 -0.12618,-0.131923 -0.12618,-0.32694 z"
         style="font-style:normal;font-variant:normal;font-weight:300;font-stretch:normal;font-family:Roboto;-inkscape-font-specification:'Roboto Light';stroke-width:0.293673"
         id="path897" />
      <path
         d="m 119.01181,87.518692 q -0.10324,-0.292525 -0.13192,-0.866104 -0.36135,0.470334 -0.92346,0.728445 -0.55637,0.252375 -1.18157,0.252375 -0.89479,0 -1.45116,-0.499014 -0.55064,-0.499014 -0.55064,-1.261874 0,-0.906255 0.75139,-1.433948 0.75713,-0.527692 2.10504,-0.527692 h 1.24467 v -0.705503 q 0,-0.665351 -0.41298,-1.043914 -0.40724,-0.384298 -1.19305,-0.384298 -0.71697,0 -1.1873,0.367091 -0.47034,0.367091 -0.47034,0.883312 l -0.68829,-0.0057 q 0,-0.739917 0.68829,-1.279081 0.6883,-0.5449 1.69206,-0.5449 1.03818,0 1.6347,0.521956 0.60226,0.516222 0.61946,1.44542 v 2.936725 q 0,0.900519 0.18929,1.347911 v 0.06883 z m -2.15665,-0.493278 q 0.68829,0 1.22746,-0.332676 0.5449,-0.332676 0.79154,-0.889047 v -1.365119 h -1.22746 q -1.02671,0.01147 -1.60603,0.378563 -0.57931,0.361354 -0.57931,0.998027 0,0.521957 0.3843,0.866105 0.39003,0.344147 1.0095,0.344147 z"
         style="font-style:normal;font-variant:normal;font-weight:300;font-stretch:normal;font-family:Roboto;-inkscape-font-specification:'Roboto Light';stroke-width:0.293673"
         id="path899" />
    </g>
  </g>
</svg>
